<?xml version="1.0" encoding="utf-8"?>
<!-- Generator: Adobe Illustrator 23.0.5, SVG Export Plug-In . SVG Version: 6.00 Build 0)  -->
<svg version="1.1" id="Layer_1" xmlns="http://www.w3.org/2000/svg" xmlns:xlink="http://www.w3.org/1999/xlink" x="0px" y="0px"
	 viewBox="0 0 1080 1048.2" style="enable-background:new 0 0 1080 1048.2;" xml:space="preserve">
<style type="text/css">
	.st0{fill:#271302;}
	.st1{fill:#FF7C01;}
</style>
<g>
	<path class="st0" d="M240.1,0h599.8C972.5,0,1080,107.5,1080,240.1v567.7c0,132.6-107.5,240.1-240.1,240.1H240.1
		C107.5,1048,0,940.4,0,807.8V240.1C-0.1,107.5,107.4,0,240.1,0z"/>
	<path class="st0" d="M240.1,50h599.8c105,0,190.2,85.1,190.2,190.2v567.7c0,105-85.1,190.2-190.2,190.2H240.1
		C135.1,998,50,912.8,50,807.8V240.1C49.9,135.1,135,50,240.1,50z"/>
	<path class="st1" d="M378.3,611.9l-30.5,94c-0.9,3.1-3.7,5.2-6.9,5h-73.7c-4.4,0-5.7-2.5-5-6.3l127-366.5c2.5-6.9,5-14.6,6.3-38.7
		c-0.1-2.3,1.6-4.3,3.8-4.4h101.6c3.2,0,4.4,0.6,5,3.8l144.2,406.5c1.3,3.2,0.6,5.7-3.2,5.7h-82.5c-3.1,0.4-6.1-1.5-7-4.4L524.9,612
		L378.3,611.9z M501.6,532.5c-12.7-41.9-38.1-118.8-50.2-163.9h-0.6c-10.2,42.5-33.1,112.5-49.6,163.9H501.6z"/>
	<path class="st1" d="M688.2,312.2c0-28.6,20.9-48.9,49.6-48.9c30.5,0,48.9,20.3,48.9,48.9c0,29.9-19.7,49.6-49.6,49.6
		C707.2,361.7,688.2,342,688.2,312.2z M692.7,400.4c0-3.2,1.3-5,5-5h78.1c3.8,0,5,1.2,5,5v304.9c0,3.8-0.6,5.7-5.7,5.7h-76
		c-4.4,0-6.3-1.9-6.3-5.7L692.7,400.4L692.7,400.4z"/>
</g>
</svg>
