<?xml version="1.0" encoding="utf-8"?>
<!-- Generator: Adobe Illustrator 23.0.5, SVG Export Plug-In . SVG Version: 6.00 Build 0)  -->
<svg version="1.1" id="Layer_1" xmlns="http://www.w3.org/2000/svg" xmlns:xlink="http://www.w3.org/1999/xlink" x="0px" y="0px"
	 viewBox="0 0 1080 1048.1" style="enable-background:new 0 0 1080 1048.1;" xml:space="preserve">
<style type="text/css">
	.st0{fill:#001D23;}
	.st1{fill:#01C8FE;}
</style>
<g>
	<path class="st0" d="M240.1,0h599.8C972.5,0,1080,107.5,1080,240.1v567.7c0,132.6-107.5,240.1-240.1,240.1H240.1
		C107.5,1047.9,0,940.4,0,807.8V240.2C-0.1,107.5,107.5,0,240.1,0z"/>
	<path class="st0" d="M240.1,50h599.8c105,0,190.1,85.2,190.1,190.1v567.7c0,105-85.2,190.1-190.1,190.1H240.1
		c-105,0-190.1-85.2-190.1-190.1V240.2C50,135.2,135.1,50,240.1,50z"/>
	<path class="st1" d="M269.7,300.7c0-3.9,0.6-5,3.8-5c26-0.6,76.2-1.9,124.5-1.9c128.3,0,172.8,71.1,172.8,140.4
		c0,102.9-79.4,146.7-177.2,146.7h-36.1v125c0,3.2-1.3,5-5,5h-78.2c-3.2,0-4.5-1.9-4.5-5V300.7z M357.5,502.8
		c10.8,0.6,17.8,0.6,35.6,0.6c50.2,0,90.1-15.2,90.1-67.3c0-40-27.3-65.4-82.5-65.4c-20.3,0-37.5,0.6-43.2,1.3V502.8z"/>
	<path class="st1" d="M734,459.5c-29.9,0-39.4,10.8-39.4,21.6s8.3,19.1,45,33c76.9,28,101,57.8,101,102.9
		c0,60.4-47,100.3-130.8,100.3c-38.7,0-72.5-7-92.1-17.8c-2.7-1.2-4.5-4-4.5-7V624c0-3.9,2.5-5.7,5-3.9
		c29.2,18.4,64.8,25.4,93.4,25.4c29.9,0,43.2-8.2,43.2-21.6c0-12.1-10.8-21-48.3-35c-71.7-26.7-95.3-57.2-95.3-102.9
		c0-49.6,40-97.2,123.9-97.2c37.5,0,66.7,5,82.5,12.7c3.1,1.5,4.9,4.9,4.5,8.2v63.5c0,3.9-2.5,6.3-6.3,4.5
		C795,467.1,762.5,459.5,734,459.5z"/>
</g>
</svg>
