<?xml version="1.0" encoding="utf-8"?>
<!-- Generator: Adobe Illustrator 23.0.5, SVG Export Plug-In . SVG Version: 6.00 Build 0)  -->
<svg version="1.1" id="Layer_1" xmlns="http://www.w3.org/2000/svg" xmlns:xlink="http://www.w3.org/1999/xlink" x="0px" y="0px"
	 viewBox="0 0 569.8 652" style="enable-background:new 0 0 569.8 652;" xml:space="preserve">
<style type="text/css">
	.st0{fill:#2299F8;}
	.st1{fill:#00B4FF;}
	.st2{fill:#FCFCFC;}
</style>
<title>CSS</title>
<g>
	<path class="st0" d="M1.4,0.2l51.7,585.8L285.3,651l232.2-65L569.2,0.2H1.4z"/>
	<polygon class="st1" points="277.8,34 277.8,612.6 470.3,555.4 521.5,34 	"/>
	<path class="st2" d="M458.6,191.7l-6.5,73.6l-19.9,220.6L285,526.6l0,0l-147.2-40.8l-10.3-115.4h72.5l5.4,59.7l80,21.6l0,0l80-21.4
		l10.9-99.7l-251.8,0.7l-7.2-68.1l265.1-3.1l5.3-73l-277.5,0.8l-4.7-67.9h359.6L458.6,191.7z"/>
</g>
</svg>
