<?xml version="1.0" encoding="utf-8"?>
<!-- Generator: Adobe Illustrator 23.0.5, SVG Export Plug-In . SVG Version: 6.00 Build 0)  -->
<svg version="1.1" id="Layer_1" xmlns="http://www.w3.org/2000/svg" xmlns:xlink="http://www.w3.org/1999/xlink" x="0px" y="0px"
	 viewBox="0 0 1080 1080" style="enable-background:new 0 0 1080 1080;" xml:space="preserve">
<path d="M964.3,0H115.7C51.8,0,0,51.8,0,115.7v848.6c0,63.9,51.8,115.7,115.7,115.7h848.6c63.9,0,115.7-51.8,115.7-115.7V115.7
	C1080,51.8,1028.2,0,964.3,0z M668.5,924.9c-20.3,3.6-27.7-9-27.7-19.3c0-13,0.5-79.5,0.5-133.3c0-37.6-12.6-61.4-27.2-74
	c89.2-9.9,183.2-22.2,183.2-176.2c0-43.9-15.7-65.8-41.3-94c4.1-10.4,17.8-53-4.1-108.5c-33.5-10.4-110.2,43.2-110.2,43.2
	c-31.8-9-66.3-13.5-100.2-13.5c-33.9,0-68.5,4.6-100.2,13.5c0,0-76.6-53.6-110.2-43.2c-21.9,55.2-8.4,97.9-4.1,108.5
	c-25.5,28.2-37.6,50.1-37.6,94c0,153.4,89.9,166.3,179.1,176.2c-11.6,10.4-21.9,28.2-25.5,53.7c-22.9,10.4-81.5,28.2-116.4-33.5
	c-21.9-38.1-61.4-41.3-61.4-41.3c-39.1-0.5-2.6,24.6-2.6,24.6c26.1,12,44.3,58.4,44.3,58.4c23.3,71.6,135.3,47.5,135.3,47.5
	c0,33.5,0.5,88,0.5,97.9c0,10.4-7.2,22.9-27.7,19.3c-159.1-53.3-270.4-204.7-270.4-381.6c0-221.3,169.2-389.3,390.5-389.3
	s400.6,168,400.6,389.3C935.6,720.3,827.7,871.9,668.5,924.9z"/>
</svg>
