<?xml version="1.0" encoding="utf-8"?>
<!-- Generator: Adobe Illustrator 23.0.5, SVG Export Plug-In . SVG Version: 6.00 Build 0)  -->
<svg version="1.1" id="Layer_1" xmlns="http://www.w3.org/2000/svg" xmlns:xlink="http://www.w3.org/1999/xlink" x="0px" y="0px"
	 viewBox="0 0 1031.1 1058.3" style="enable-background:new 0 0 1031.1 1058.3;" xml:space="preserve">
<style type="text/css">
	.st0{fill:#347AB4;}
</style>
<g>
	<title></title>
	<path class="st0" d="M742.3,0C701.3,0.3,660.4,6.3,621,17.8l-2.8,0.9c-24.8-4.4-50.1-6.8-75.3-7.3C491,10.5,446.4,23.1,410.5,44
		c-35.4-12.3-108.8-33.5-186.3-29.2c-53.9,3-112.7,19.3-156.3,65.4c-43.5,46-66.4,117.2-61.6,214.1C7.6,321,15.3,364.6,27.9,421
		s30.4,122.5,52.5,182.8c22.1,60.3,46.4,114.5,84.3,151.3c18.9,18.5,45,34,75.8,32.7c21.6-0.9,41.1-10.3,57.9-24.3
		c8.2,10.8,17,15.5,24.9,19.9c10.1,5.5,19.8,9.3,29.9,11.7c18.2,4.5,49.4,10.6,85.8,4.4c12.4-2.1,25.5-6.1,38.6-11.9
		c0.5,14.5,1.1,28.7,1.7,43.2c1.8,45.6,3,87.8,16.6,124.7c2.2,6,8.2,37.1,32,64.6c23.8,27.5,70.3,44.6,123.5,33.3
		c37.4-8,85.1-22.5,116.7-67.5c31.3-44.4,45.4-108.3,48.2-211.8c0.7-5.6,1.5-10.3,2.5-14.8l7.4,0.7h0.9
		c39.9,1.8,83.3-3.9,119.5-20.7c32.1-14.8,56.3-29.9,74-56.5c4.4-6.6,9.3-14.6,10.6-28.3s-6.6-35.2-19.7-45.1
		c-26.2-19.9-42.7-12.3-60.3-8.7c-17.4,3.8-35.1,6-52.9,6.4c50.9-85.7,87.4-176.8,108.2-257.4c12.3-47.6,19.3-91.4,19.8-129.8
		c0.6-38.4-2.6-72.3-25.6-101.7C928.7,26.4,827.7,1.1,749.6,0.2c-2.5-0.1-4.8-0.1-7.3-0.1L742.3,0L742.3,0z M740.2,28.2
		c73.9-0.7,168.3,20.1,236.1,106.6c15.2,19.5,19.8,47.9,19.3,83c-0.6,35-7,76.9-18.9,122.9c-23,89-66.4,192.7-127.6,285.7
		c2.2,1.5,4.5,2.8,7,3.8c12.8,5.3,41.9,9.8,100-2.1c14.6-3.1,25.3-5.2,36.4,3.3c5.5,4.6,8.5,11.6,8.1,18.7
		c-0.6,5.4-2.6,10.5-5.7,14.8c-11.3,16.9-33.4,32.9-61.8,46c-25.2,11.7-61.2,17.8-93.2,18.2c-16,0.2-30.8-1.1-43.4-5l-0.8-0.3
		c-4.8,46.7-16,138.8-23.3,180.9c-5.8,33.9-16,60.9-35.4,81c-19.4,20.1-46.8,32.3-83.7,40.3c-45.7,9.8-79-0.7-100.6-18.9
		c-21.5-18.1-31.3-42-37.2-56.7c-4-10.1-6.2-23.3-8.2-40.8c-2.1-17.6-3.5-39-4.5-63.1c-1.3-37-1.8-74.1-1.3-111.1
		c-19.1,17.5-42.8,29.1-68.4,33.5c-30.3,5.2-57.4,0.1-73.6-4c-7.9-2-15.6-5-22.9-8.9c-7.5-4-14.6-8.5-19.4-17.5
		c-2.8-5.1-3.7-11.1-2.5-16.8c1.5-5.8,4.8-10.9,9.6-14.6c8.7-7.1,20.3-11.1,37.6-14.6c31.7-6.5,42.7-11,49.5-16.3
		c5.7-4.6,12.2-13.8,23.6-27.4c-0.1-0.6-0.1-1.2-0.1-1.8c-20.5-0.6-40.5-6-58.6-15.8c-6.6,7-40.3,42.7-81.5,92.1
		c-17.3,20.7-36.4,32.6-56.6,33.5c-20.1,0.9-38.4-9.3-53.9-24.3c-30.9-30.1-55.6-81.8-77.2-140.3c-21.5-58.5-39-123.6-51.4-179.1
		S36,313,34.9,291.4C30.3,199.7,51.8,137.9,88.5,99c36.8-39,87.3-53.7,136.5-56.6c88.3-5,172.2,25.7,189.1,32.3
		c32.7-22.2,74.8-36,127.4-35.2c25,0.3,49.8,3.6,74.1,9.6l0.9-0.4c10.7-3.8,21.5-6.9,32.5-9.4C678.9,32.4,709.4,28.7,740.2,28.2
		L740.2,28.2z M746.9,57.7h-6.4c-25.2,0.3-50.3,3.2-75.1,8.5c54.8,24.3,96.3,61.7,125.5,99.1c20.3,25.8,37,54.3,49.9,84.5
		c4.8,11.7,8.1,21.5,9.9,29.1c0.9,3.8,1.5,7,1.8,10.4c0.1,1.7,0.2,3.4-0.5,6.4c0,0.1-0.2,0.5-0.3,0.6c1.3,38.6-8.2,64.7-9.4,101.5
		c-0.9,26.7,6,58,7.6,92.3c1.6,32.1-2.3,67.5-23.2,102.1c1.8,2.1,3.4,4.2,5,6.4c55.2-87,95.1-183.2,116.3-265.2
		c11.4-44.2,17.4-84.2,18-115.9c0.5-31.7-5.4-54.7-13-64.3C894,77.4,813.9,58.2,746.9,57.7L746.9,57.7z M536,69
		c-52.1,0.1-89.4,15.8-117.7,39.4c-29.2,24.4-48.8,57.7-61.7,91.8c-15.3,40.5-20.5,79.7-22.6,106.3l0.6-0.3
		c15.7-8.8,36.4-17.6,58.5-22.7c22.1-5,45.9-6.6,67.5,1.7c21.6,8.3,39.4,28,45.9,57.9c31,143.4-9.7,196.7-24.6,237
		c-5.7,14.6-10.5,29.5-14.6,44.6c1.9-0.5,3.8-1,5.7-1.1c10.6-0.9,18.9,2.6,23.8,4.8c15,6.2,25.4,19.4,31,34.4
		c1.5,3.9,2.5,8.1,3.1,12.5c0.7,1.8,0.9,3.7,0.9,5.6c-1.7,54.8-1.5,109.8,0.6,164.6c1,23.7,2.5,44.6,4.4,61
		c1.9,16.4,4.6,28.9,6.3,33.2c5.6,14.1,13.8,32.5,28.7,45.1c14.9,12.5,36.2,20.9,75.3,12.5c33.8-7.3,54.7-17.4,68.6-31.9
		c13.9-14.5,22.3-34.6,27.6-65.5c7.9-46.2,24-180.3,26-205.5c-0.9-19,1.9-33.7,8-44.8c6.2-11.5,16-18.5,24.3-22.3
		c4.2-1.9,8.1-3.2,11.3-4.1c-3.4-4.9-7-9.7-10.7-14.3c-12.1-14.6-21.9-30.9-29.3-48.4c-3.5-7.2-7.3-14.3-11.3-21.3
		c-5.8-10.6-13.2-23.8-21-38.6c-15.5-29.7-32.4-65.8-41.1-100.8c-8.7-35-10-71.3,12.4-96.9c19.8-22.7,54.6-32.1,106.8-26.9
		c-1.5-4.6-2.5-8.5-5-14.6c-11.8-27.8-27.2-53.9-45.8-77.7C723.4,127.1,651.7,70.9,541,69.1L536,69L536,69L536,69z M243.5,71.3
		c-5.6,0-11.2,0.2-16.8,0.5c-44.4,2.6-86.5,15.4-116.6,47.4C80,151,60.2,203.2,64.5,289.8c0.9,16.4,7.9,62.3,20.2,116.8
		c12.2,54.5,29.5,118.7,50.3,175.3c20.8,56.7,46,106,70,129.4c12.1,11.7,22.5,16.4,32.1,16c9.5-0.5,21.1-6,35.1-22.8
		c25.6-30.9,52.2-61,79.7-90.2c-39.7-34.4-59-86.8-51.4-138.7c4.5-32.5,5.2-63,4.6-87c-0.5-23.4-2.2-39-2.2-48.8c0-0.3,0-0.5,0-0.9
		v-0.2l-0.1-0.3v-0.1c0-50.7,8.8-101,26.1-148.6c12.3-32.8,30.7-66,58.2-93c-27-8.9-75.1-22.5-127-25
		C254.6,71.4,249,71.3,243.5,71.3L243.5,71.3z M789.5,303.9c-29.9,0.4-46.7,8.1-55.5,18.2c-12.5,14.3-13.6,39.4-5.9,70.3
		c7.7,30.9,23.6,65.6,38.6,94.3c7.5,14.4,14.8,27.4,20.6,37.9c5.9,10.6,10.2,18.1,12.9,24.4c2.5,5.9,5.1,11.1,7.8,16
		c11.6-24.4,13.6-48.4,12.5-73.5c-1.5-30.9-8.7-62.6-7.7-94.7c1.2-37.5,8.6-61.9,9.3-90.9C811.2,304.6,800.4,303.9,789.5,303.9z
		 M426.8,309c-9.1,0.1-18.2,1.2-27.2,3.2c-17.8,4.3-34.8,10.9-50.8,19.8c-5.4,2.9-10.5,6.2-15.4,10.1l-1,0.9c0.3,6.4,1.5,22,2.1,45
		c0.5,25.1-0.1,57.1-4.9,91.8c-10.5,75.3,44.1,137.7,108.3,137.8c3.8-15.4,9.9-31.1,16.1-47.6c17.9-48.2,53.1-83.3,23.4-220.5
		c-4.8-22.5-14.4-31.5-27.7-36.6C442.5,310,434.7,308.8,426.8,309z M775.5,318h2.2c2.9,0.1,5.6,0.4,7.9,1c2.4,0.5,4.4,1.3,6.1,2.5
		c1.7,1.1,2.9,2.8,3.3,4.8l-0.1,0.3h0.1H795c0.1,2.1-0.5,4.2-1.5,6c-1.3,2.4-2.9,4.6-4.8,6.6c-4.4,4.9-10.5,8.2-17,9.3
		c-6.4,0.8-12.8-0.9-18.1-4.5c-2.1-1.5-4.1-3.2-5.7-5.2c-1.5-1.6-2.4-3.5-2.8-5.6c-0.2-2.1,0.5-4.1,1.9-5.6c1.5-1.7,3.2-3,5.2-4
		c4.2-2.4,9.9-4.1,16.4-5.1C770.9,318.2,773.3,318,775.5,318L775.5,318z M431.1,325.4c2.3,0,4.8,0.2,7.3,0.6
		c6.8,0.9,12.7,2.7,17.3,5.4c2.3,1.2,4.2,2.8,5.8,4.6c1.8,2.1,2.6,4.8,2.4,7.5c-0.4,2.5-1.6,4.9-3.3,6.8c-1.8,2.2-3.9,4.2-6.3,5.7
		c-5.7,4-12.8,5.8-19.7,5c-7.1-1.2-13.6-4.7-18.5-10.1c-2.1-2.1-3.8-4.6-5.2-7.2c-1.5-2.3-2.1-5.1-1.8-7.8c0.7-4.8,4.6-7.2,8.4-8.6
		C421.9,325.8,426.5,325.2,431.1,325.4L431.1,325.4z M830.1,648.7l-0.1,0.1c-6.5,2.3-11.8,3.3-16.3,5.3c-4.6,1.7-8.3,5.1-10.5,9.4
		c-2.8,5-5.2,14-4.4,29.3c2,1.4,4.2,2.4,6.5,3.1c7.6,2.3,20.1,3.8,34.2,3.6c28.1-0.3,62.7-6.9,81-15.4c15-7,29.1-16.1,41.5-27.1
		h-0.1c-61.3,12.7-96,9.3-117.2,0.5C839.4,655.3,834.5,652.4,830.1,648.7L830.1,648.7z M476.4,652.9h-0.9c-2.3,0.2-5.7,1-12.3,8.3
		c-15.3,17.2-20.7,28-33.3,38s-29.1,15.4-61.9,22.1c-10.4,2.1-16.4,4.4-20.3,6.4c1.3,1.1,1.1,1.3,3.1,2.3c4.8,2.6,11,5,16,6.2
		c14.1,3.5,37.2,7.6,61.4,3.5c24.2-4.1,49.4-15.7,70.7-45.8c3.7-5.2,4.1-12.9,1.1-21.1c-3.1-8.2-9.8-15.3-14.6-17.3
		C482.7,654.2,479.6,653.3,476.4,652.9L476.4,652.9L476.4,652.9z"/>
</g>
</svg>
