<?xml version="1.0" encoding="utf-8"?>
<!-- Generator: Adobe Illustrator 23.0.5, SVG Export Plug-In . SVG Version: 6.00 Build 0)  -->
<svg version="1.1" id="Layer_1" xmlns="http://www.w3.org/2000/svg" xmlns:xlink="http://www.w3.org/1999/xlink" x="0px" y="0px"
	 viewBox="0 0 1080 1080" style="enable-background:new 0 0 1080 1080;" xml:space="preserve">
<style type="text/css">
	.st0{fill:#347AB4;}
	.st1{fill:#FFCA1D;}
	.st2{fill:#FFFFFF;}
</style>
<g>
	<g id="_x32_67-python_1_">
		<g>
			<path class="st0" d="M393.6,503.2h246.6c68.6,0,123.3-56.6,123.3-125.4V142.6c0-66.9-56.3-117.1-123.3-128.4
				C557.6,0.6,467.7,1.3,393.6,14.5c-104.4,18.5-123.3,57-123.3,128.4v50.3h246.8v75H177.7c-71.8,0-134.7,43.2-154.3,125.2
				c-22.7,94-23.5,152.6,0,250.8c17.6,73,59.4,125.2,131.2,125.2h84.8V656.5C239.4,575,309.8,503.2,393.6,503.2L393.6,503.2z"/>
			<path class="st1" d="M1053.2,430.8c-17.8-71.3-51.5-125.2-123.3-125.2h-92.6V415c0,85-72,156.5-154.3,156.5H436.4
				c-67.5,0-123.3,57.7-123.3,125.4V932c0,66.9,58.2,106.2,123.3,125.4c78,22.8,153.1,27,246.6,0c62.1-18,123.3-54.3,123.3-125.4
				v-49.3H559.9v-76.1h369.9c71.8,0,98.4-50.1,123.3-125.2C1079.1,604.2,1077.8,529.8,1053.2,430.8L1053.2,430.8z"/>
			<path class="st2" d="M378.1,149.6c-24.6,0-44.5-20.2-44.5-45c0.2-25.1,19.9-45.2,44.5-45.2c24.4,0,44.5,20.4,44.5,45.2
				S402.7,149.6,378.1,149.6z"/>
			<path class="st2" d="M677.4,1019.3c-24.6,0-44.5-20.2-44.5-45c0.3-25.1,19.9-45.2,44.5-45.2c24.4,0,44.5,20.4,44.5,45.2
				C721.9,999.1,702,1019.3,677.4,1019.3z"/>
		</g>
	</g>
</g>
</svg>
