<?xml version="1.0" encoding="utf-8"?>
<!-- Generator: Adobe Illustrator 23.0.5, SVG Export Plug-In . SVG Version: 6.00 Build 0)  -->
<svg version="1.1" id="Layer_1" xmlns="http://www.w3.org/2000/svg" xmlns:xlink="http://www.w3.org/1999/xlink" x="0px" y="0px"
	 viewBox="0 0 1080 972.4" style="enable-background:new 0 0 1080 972.4;" xml:space="preserve">
<style type="text/css">
	.st0{fill:#00D8FF;}
</style>
<g>
	<circle class="st0" cx="540.2" cy="490.8" r="96.5"/>
	<g>
		<path class="st0" d="M540.2,711.9c-135.5,0-253.9-15.9-342.6-46.3C140.2,646,91.3,619.8,56.5,590C19.7,558.5,0,524.1,0,490.8
			c0-63.8,70-126.3,187.5-167c96.1-33.5,221.4-52.1,352.5-52.1c128.8,0,252.4,18.1,347.9,51.1c56,19.2,103,44.2,136.5,71.9
			c36.4,30.4,55.6,63.6,55.6,96.1c0,66.3-78.2,133.4-204.4,175.1C786.5,695.6,667.3,711.9,540.2,711.9z M540.2,317.8
			c-124.3,0-247.4,18.1-337.4,49.4c-108,37.7-156.5,89.2-156.5,123.6c0,35.8,52.1,92.1,166.3,131.1c83.8,28.6,197.2,43.8,327.5,43.8
			c122.3,0,236.3-15.3,321-43.7c118.6-39.4,172.8-95.7,172.8-131.3c0-18.3-13.9-39.8-39-60.7c-29.1-24.2-71.3-46.3-121.9-63.8
			C782.2,335.2,664,317.8,540.2,317.8z"/>
	</g>
	<g>
		<path class="st0" d="M321.3,971.8c-19.6,0-36.9-4.2-51.5-12.7c-55.1-31.9-74.4-123.8-51.1-245.9c19-100.1,65.6-217.8,131.1-331.4
			c64.4-111.5,141.6-209.5,218-275.8c44.6-38.8,89.8-67.3,130.5-82.3c44.4-16.3,82.8-16.3,110.9-0.2
			c57.4,33.1,76.5,134.6,49.6,264.5c-19,92.2-64.4,203.5-127.8,313.7c-67.6,117.3-140.7,211.8-211.2,273.5
			c-45.7,40-92.8,69.2-135.9,84.4C361.3,967.7,340.1,971.8,321.3,971.8z M369.5,393.4l20,11.5c-62.1,107.7-108,223.1-125.7,316.9
			c-21.3,112.4-0.7,180.1,28.8,197.2c7.3,4.2,16.9,6.6,28.6,6.6c38.2,0,98.4-24.2,168-84.9c66.7-58.3,136.5-149,201.6-261.8
			C752,473,795.5,366.5,813.5,279c25.2-122.4,3.4-197.4-27.5-215.3c-15.8-9-41.3-7.9-72.1,3.4c-35.5,13-75.8,38.7-116.1,73.8
			c-72.5,63-146.5,156.8-208.4,264.1L369.5,393.4z"/>
	</g>
	<g>
		<path class="st0" d="M759.1,972.4c-52.3,0-118.6-31.5-187.8-91.1C494,814.7,415.4,715.8,349.6,602.2l0,0
			C285,490.7,238.9,374.8,219.5,275.4c-11.3-58-13.5-111.3-6.2-154.1c8-46.7,27.1-79.9,55.4-96.3c57.3-33.2,154.7,1,253.9,89.2
			c70.3,62.5,144.2,157.4,207.8,267.4c67.9,117.3,113.4,227.8,131.5,319.7c11.7,59.6,13.6,115,5.4,160
			c-8.9,47.8-28.8,81.9-57.7,98.6C795.2,968.2,778.2,972.4,759.1,972.4z M389.7,579.1c62.3,107.7,139.5,205.1,211.8,267.2
			c86.7,74.6,155.5,90.7,185.3,73.5c30.9-17.9,53.6-91.1,30.2-209.5c-17.3-86.9-60.9-192.6-126.3-305.5
			C629.3,298.9,558.8,208,492.1,148.7C398.7,65.7,323,47,292,64.9c-15.8,9-27.5,31.9-33.1,64.2c-6.3,37.3-4.4,84.9,6,137.5
			C283.4,360.9,327.6,471.8,389.7,579.1L389.7,579.1z"/>
	</g>
</g>
</svg>
