<?xml version="1.0" encoding="utf-8"?>
<!-- Generator: Adobe Illustrator 23.0.5, SVG Export Plug-In . SVG Version: 6.00 Build 0)  -->
<svg version="1.1" id="Layer_1" xmlns="http://www.w3.org/2000/svg" xmlns:xlink="http://www.w3.org/1999/xlink" x="0px" y="0px"
	 viewBox="0 0 1080 1080" style="enable-background:new 0 0 1080 1080;" xml:space="preserve">
<style type="text/css">
	.st0{fill:#F03E2F;}
	.st1{fill:#FFFFFF;}
	.st2{fill:#F9B1AB;}
</style>
<g>
	<path class="st0" d="M550.2,1080h-21.4C236.7,1080,0,843.3,0,551.2v-21.4C0,237.7,236.7,1,528.8,1h21.4
		C842.3,1,1079,237.7,1079,529.8v21.4C1079,843.3,842.3,1080,550.2,1080z"/>
	<path class="st1" d="M291.9,672.6c43.6,0,84.9-0.2,126.1,0.3c4.1,0.1,9.6,3.8,12.2,7.5c46.2,64.9,95.2,83.6,171,63
		c35.2-9.6,59.5-32.2,68.9-68.4c7.5-28.6,6.2-34.3-21.9-43.3c-44.2-14.2-89.1-25.7-133.9-37.8c-46.2-12.4-93.9-19.4-135.5-45.9
		c-58-37-85.8-109.1-68.4-175.7C331,294.3,384.8,249.6,458.8,232c78.9-18.9,157.9-14.3,229.4,30.5c50.1,31.4,78.7,77.9,91.7,138.9
		c-42.9,0-83.3,0.6-123.6-0.8c-5.3-0.2-11.4-10.2-15.3-16.8c-42.7-71.9-165.2-74.5-209.7-4.1c-4.3,6.8-7.7,14.4-10,22.1
		c-4.1,13.7-5.9,21.8-3.2,27.5c2.7,5.7,9.9,9,23.9,13.3c57,17.4,114.6,33.5,172.6,47.4c56.8,13.6,109.4,33.1,144,83.2
		c51.6,74.6,30.7,185.4-43.7,237c-72.8,50.6-153,58.2-237.7,41c-61-12.4-112.9-39.1-149.6-91C309.7,734.9,297.4,706.9,291.9,672.6z"
		/>
	<path class="st2" d="M779.7,401.3c-42.9,0-83.3,0.6-123.6-0.7c-5.3-0.2-11.4-10.2-15.3-16.8c-42.7-71.9-165.2-74.5-209.7-4
		c-4.3,6.8-7.7,14.4-10,22.1c-4.1,13.7-5.9,21.8-3.2,27.5c0,0-88.5-14.4-89-103.9c36.5-63.6,65.3-78.1,129.8-93.5
		c78.9-18.9,157.9-14.3,229.4,30.5C738.1,293.8,766.8,340.4,779.7,401.3z"/>
	<path class="st2" d="M673.2,642.9c0,0,117.8,10.2,106.5,79.6c0,0-20.3,128.6-227.9,137.1c0,0-224.6,16.7-267.8-191l135.6,2.8
		c0,0,67.2,85.7,123.6,77.5C543.2,749,678,749.8,673.2,642.9z"/>
</g>
</svg>
