<?xml version="1.0" encoding="utf-8"?>
<!-- Generator: Adobe Illustrator 23.0.5, SVG Export Plug-In . SVG Version: 6.00 Build 0)  -->
<svg version="1.1" id="Layer_1" xmlns="http://www.w3.org/2000/svg" xmlns:xlink="http://www.w3.org/1999/xlink" x="0px" y="0px"
	 viewBox="0 0 1080 649" style="enable-background:new 0 0 1080 649;" xml:space="preserve">
<style type="text/css">
	.st0{fill:#2299F8;}
</style>
<g>
	<path class="st0" d="M891.7,190.1c-40.5-13.9-76.2-39-103.1-72.4C728.6,42.5,637.1-0.7,540.9,0.6c-132.5-9.4-250,84.6-269.9,215.9
		c38.9-65,115.2-97.5,188.9-80.5C500.3,150.4,536,175.7,563,209c60.4,74.6,151.8,117.2,247.8,115.5c132.5,9.4,250-84.6,269.9-215.9
		C1042.5,174.4,965.7,207.5,891.7,190.1z M189.9,458.9c40.5,13.9,76.2,39,103.1,72.4c60,75.2,151.5,118.4,247.8,117.1
		c132.5,9.4,250-84.6,269.9-215.9c-38.9,65-115.2,97.5-188.9,80.5c-40.4-14.3-76.1-39.6-103.1-72.9
		c-60.5-74.4-151.8-117-247.8-115.5C138.4,315.1,21,409.1,1,540.4C39.2,474.6,115.9,441.5,189.9,458.9z"/>
</g>
</svg>
