<?xml version="1.0" encoding="utf-8"?>
<!-- Generator: Adobe Illustrator 23.0.5, SVG Export Plug-In . SVG Version: 6.00 Build 0)  -->
<svg version="1.1" id="Layer_1" xmlns="http://www.w3.org/2000/svg" xmlns:xlink="http://www.w3.org/1999/xlink" x="0px" y="0px"
	 viewBox="0 0 1080 1080" style="enable-background:new 0 0 1080 1080;" xml:space="preserve">
<style type="text/css">
	.st0{fill:#2299F8;}
</style>
<g>
	<g>
		<path class="st0" d="M974.5,0H105.5C47.2,0,0,47.2,0,105.5v869.1c0,58.2,47.2,105.5,105.5,105.5h869.1
			c58.2,0,105.5-47.2,105.5-105.5V105.5C1080,47.3,1032.8,0,974.5,0z M626.4,599.3H491.1v385.9H383.7V599.3H248.9v-86.7h377.6
			L626.4,599.3L626.4,599.3z M976.4,916.8c-21.1,37.5-59.7,58.6-100.6,67.5c-47.7,10.1-98.5,9.7-146.2,0.7
			c-23.4-4.4-43.7-10.9-61-19.8V859.5c19.2,16,39.9,28,62.4,36.1c22.4,8,45.2,12,67.9,12c20.2,0,42.9-2.5,60.3-13.7
			c12-7.6,20.1-19.7,20.1-34.1c0-19.7-14.1-34.6-29.5-44.9c-22.4-15.2-48.3-24.9-73.2-35.2c-36.9-15.4-64.6-34.1-82.7-56.5
			c-31.7-38.6-36.7-100.4-12.4-144.1c20.9-37.3,59.3-59.3,99.8-69c44.1-10.5,92-10.5,136.9-3.6c19,3,36.5,7.6,52.7,13.7v98.7
			c-8-5.5-16.7-10.4-25.9-14.6c-18.3-8.2-38.4-13.7-58.4-16.5c-20.1-2.7-41.1-3.1-61,1.5c-15.6,3.6-31.8,10.8-41,24.7
			c-3.8,5.9-5.7,12.4-5.7,19.7c0,8,2.1,15,6.3,21.3c10.5,15.8,29.1,26.2,46,34.4c29.3,14.3,60.1,25.1,88.4,41.9
			c27.4,16.2,51.7,38.6,63.5,68.5c5.7,14.3,8.6,31.3,8.6,50.4C991.4,876.7,986.3,898.9,976.4,916.8z"/>
	</g>
</g>
</svg>
